<?xml version="1.0" standalone="no"?>
<!DOCTYPE svg PUBLIC "-//W3C//DTD SVG 20010904//EN"
 "http://www.w3.org/TR/2001/REC-SVG-20010904/DTD/svg10.dtd">
<svg version="1.0" xmlns="http://www.w3.org/2000/svg"
 width="772.000000pt" height="772.000000pt" viewBox="0 0 772.000000 772.000000"
 preserveAspectRatio="xMidYMid meet">
<metadata>
Created by potrace 1.11, written by Peter Selinger 2001-2013
</metadata>
<g transform="translate(0.000000,772.000000) scale(0.100000,-0.100000)"
fill="#000000" stroke="none">
<path d="M0 3860 l0 -3860 3858 2 3857 3 3 3858 2 3857 -3860 0 -3860 0 0
-3860z m3470 -10 l0 -2500 -145 0 -145 0 0 2500 0 2500 145 0 145 0 0 -2500z
m1110 0 l0 -2500 -145 0 -145 0 0 2500 0 2500 145 0 145 0 0 -2500z m-2070
2325 l0 -125 -320 0 -320 0 0 -2080 0 -2080 315 0 315 0 0 -125 0 -125 -470 0
-470 0 0 2330 0 2330 475 0 475 0 0 -125z m3690 -2205 l0 -2330 -475 0 -475 0
0 125 0 125 315 0 315 0 0 2080 0 2080 -310 0 -310 0 0 125 0 125 470 0 470 0
0 -2330z"/>
</g>
</svg>
